<svg id="Слой_2" data-name="Слой 2" xmlns="http://www.w3.org/2000/svg" viewBox="0 0 101 101"><title>Artboard 2 copy 10 копия 9</title><path d="M83.18,50A20.84,20.84,0,0,1,73.82,32.5a1.5,1.5,0,0,0-1.5-1.5H56.42a1.5,1.5,0,0,0-1.5,1.5A16.22,16.22,0,0,1,53.08,40h-15a1.5,1.5,0,0,0-1.5,1.5A20.83,20.83,0,0,1,27.19,59c-6.32,4.17-9.94,10.22-9.94,16.61,0,12.1,12.9,21.94,28.75,21.94,9.76,0,18.4-3.74,23.6-9.43l.08,0,.23,0C83.36,86,93.13,77,93.13,66.57,93.13,60.18,89.5,54.13,83.18,50ZM46,94.51c-14.2,0-25.75-8.5-25.75-18.94,0-5.36,3.13-10.5,8.59-14.1A23.8,23.8,0,0,0,39.5,43h4.09c-.19,3.53-1.16,15.15-5.74,19.74A1.5,1.5,0,1,0,40,64.86c5.45-5.45,6.45-18.2,6.63-21.86H52.5A23.8,23.8,0,0,0,63.16,61.46c5.46,3.6,8.59,8.74,8.59,14.1C71.75,86,60.2,94.51,46,94.51Zm26.22-10a17.56,17.56,0,0,0,2.53-9c0-6.39-3.62-12.44-9.94-16.61a20.82,20.82,0,0,1-9.35-17.08A19,19,0,0,0,57.86,34h13A23.8,23.8,0,0,0,81.53,52.46c5.46,3.6,8.59,8.74,8.59,14.1C90.13,74.77,82.74,82,72.22,84.55Z"/><path d="M52.82,61.06a1.5,1.5,0,0,0-3,.52c.07.38,1.72,9.45,7.67,16.06a1.5,1.5,0,1,0,2.23-2C54.4,69.67,52.83,61.14,52.82,61.06Z"/><path d="M76.1,56.27c-8.33-6.67-7.63-17.68-7.62-17.79a1.5,1.5,0,0,0-3-.23c0,.51-.86,12.69,8.73,20.36a1.5,1.5,0,0,0,1.88-2.34Z"/><path d="M30.31,36.11a1.5,1.5,0,0,0,1.18-2.43c-7.47-9.44.79-16.75,1.15-17.06a1.5,1.5,0,0,0-1.95-2.28c-.11.09-10.84,9.47-1.56,21.2A1.5,1.5,0,0,0,30.31,36.11Z"/><path d="M40.53,16c-2.39,2.13-5.35,4.77-4.75,9.9.79,6.68,6.59,8.48,9.55,8.5h0a1.5,1.5,0,0,0,0-3c-.24,0-5.92-.11-6.6-5.85-.42-3.58,1.52-5.31,3.77-7.31,2-1.82,4.36-3.89,4.36-7.43,0-5.71-5.48-8-8.37-8.37a1.5,1.5,0,1,0-.41,3c.24,0,5.78.85,5.78,5.4C43.89,12.93,42.61,14.17,40.53,16Z"/></svg>