<svg id="Слой_2" data-name="Слой 2" xmlns="http://www.w3.org/2000/svg" viewBox="0 0 101 101"><title>Artboard 2 copy 14</title><path d="M86.43,58.34,69.59,45l.8-1.44a9.93,9.93,0,0,0,.57-7l8.42-8.42A6.67,6.67,0,1,0,84,16.64,6.67,6.67,0,1,0,72.6,21.31l-8.42,8.42a10.05,10.05,0,0,0-7.09.61l-3.47,1.92A31.5,31.5,0,1,0,33.5,88h42l.28,0,.72,0A16.52,16.52,0,0,0,93,71.5,16.35,16.35,0,0,0,86.43,58.34ZM75.92,22.23a1.5,1.5,0,0,0-.33-2.37,3.67,3.67,0,1,1,5.22-1.92,1.5,1.5,0,0,0,1.93,1.93,3.68,3.68,0,1,1-1.92,5.22,1.5,1.5,0,0,0-2.37-.33L69.6,33.62a9.49,9.49,0,0,0-2.53-2.53ZM58.46,33a6.91,6.91,0,0,1,9.25,9.13l-1.38,2.49,0,0-9.9,17.87a13.33,13.33,0,1,1-18.3-18.26l16-8.88.12-.06Zm18,52c-.23,0-.46,0-.69,0h-.2a1.38,1.38,0,0,0-.46,0H33.5A28.5,28.5,0,1,1,50.75,33.86L36.62,41.69A16.33,16.33,0,1,0,59,64.07l0,0,9.09-16.41,16.48,13.1A13.49,13.49,0,0,1,76.5,85Z"/><circle cx="11.5" cy="55.5" r="2.5"/><circle cx="16.5" cy="47.5" r="2.5"/><circle cx="21.5" cy="55.5" r="2.5"/><circle cx="47.5" cy="60.5" r="2.5"/></svg>