<svg id="Слой_2" data-name="Слой 2" xmlns="http://www.w3.org/2000/svg" viewBox="0 0 101 101"><title>Artboard 2 copy 10 копия 8</title><path d="M88.32,52H72.68A5.68,5.68,0,0,0,67,57.68V73.32A5.68,5.68,0,0,0,72.68,79H88.32A5.68,5.68,0,0,0,94,73.32V57.68A5.68,5.68,0,0,0,88.32,52ZM91,73.32A2.68,2.68,0,0,1,88.32,76H72.68A2.68,2.68,0,0,1,70,73.32V57.68A2.68,2.68,0,0,1,72.68,55H88.32A2.68,2.68,0,0,1,91,57.68Z"/><path d="M80.5,59A6.5,6.5,0,1,0,87,65.5,6.51,6.51,0,0,0,80.5,59Zm0,10A3.5,3.5,0,1,1,84,65.5,3.5,3.5,0,0,1,80.5,69Z"/><path d="M19.68,40H35.32A5.68,5.68,0,0,0,41,34.32V18.68A5.68,5.68,0,0,0,35.32,13H19.68A5.68,5.68,0,0,0,14,18.68V34.32A5.68,5.68,0,0,0,19.68,40ZM17,18.68A2.68,2.68,0,0,1,19.68,16H35.32A2.68,2.68,0,0,1,38,18.68V34.32A2.68,2.68,0,0,1,35.32,37H19.68A2.68,2.68,0,0,1,17,34.32Z"/><path d="M27.5,33A6.5,6.5,0,1,0,21,26.5,6.51,6.51,0,0,0,27.5,33Zm0-10A3.5,3.5,0,1,1,24,26.5,3.5,3.5,0,0,1,27.5,23Z"/><path d="M41,76.32V60.68A5.68,5.68,0,0,0,35.32,55H19.68A5.68,5.68,0,0,0,14,60.68V76.32A5.68,5.68,0,0,0,19.68,82H35.32A5.68,5.68,0,0,0,41,76.32Zm-3,0A2.68,2.68,0,0,1,35.32,79H19.68A2.68,2.68,0,0,1,17,76.32V60.68A2.68,2.68,0,0,1,19.68,58H35.32A2.68,2.68,0,0,1,38,60.68Z"/><path d="M27.5,62A6.5,6.5,0,1,0,34,68.5,6.51,6.51,0,0,0,27.5,62Zm0,10A3.5,3.5,0,1,1,31,68.5,3.5,3.5,0,0,1,27.5,72Z"/><path d="M95.18,30a1.5,1.5,0,0,0-1.84-1L65.93,36.46,77.39,10.94a1.5,1.5,0,1,0-2.74-1.23L62.18,37.49,1.39,54.16a1.5,1.5,0,0,0,.4,2.95,1.47,1.47,0,0,0,.4-.05L60.59,41l-25,55.65a1.5,1.5,0,1,0,2.74,1.23L64.34,40l29.79-8.17A1.5,1.5,0,0,0,95.18,30Z"/></svg>