<svg id="Слой_2" data-name="Слой 2" xmlns="http://www.w3.org/2000/svg" viewBox="0 0 101 101"><title>Artboard 2 copy 10 копия 3</title><path d="M31.49,56.61a1.5,1.5,0,0,0-3,0,18.86,18.86,0,0,0,3.35,10.68,1.5,1.5,0,0,0,2.48-1.69A15.87,15.87,0,0,1,31.49,56.61Z"/><path d="M61.54,71.4a21.9,21.9,0,0,1-20.73,0A1.5,1.5,0,1,0,39.36,74,24.9,24.9,0,0,0,63,74a1.5,1.5,0,0,0-1.44-2.63Z"/><path d="M81.29,64.76c.81-2.7,3.76-4.48,8.08-6.78,5.08-2.71,10.84-5.78,10-12.54a11.16,11.16,0,0,0-21.72-1.9,31.88,31.88,0,0,0-21.46-13,7.09,7.09,0,1,0-10.9,0c-11.46,1.76-20.85,9-24.46,18.69a24,24,0,0,0-13.44-13,1.5,1.5,0,0,0-1.54.36L1.69,40.68A1.5,1.5,0,0,0,2,43,12.44,12.44,0,0,1,7.6,53.53v1c0,4.41-.1,11.79,4.88,16.81,3.23,3.26,8.09,5,14.46,5.07A33.26,33.26,0,0,0,50.7,86c12.36,0,23.07-6.35,28.23-15.56a7,7,0,0,0,6.22,3.81,7.13,7.13,0,0,0,.92-.06,7,7,0,0,0,6.06-7.87,1.5,1.5,0,0,0-3,.39,4,4,0,1,1-8,1l-.07-.54a6,6,0,0,1,.07-2.08ZM80.16,47.92a8.17,8.17,0,1,1,16.19-2.1c.57,4.39-2.79,6.52-8.4,9.51a40.05,40.05,0,0,0-5.77,3.51c0-.26,0-.52,0-.78a25,25,0,0,0-2-9.88A1.49,1.49,0,0,0,80.16,47.92ZM66.62,37.37c-.89,1.33-6.35,3.69-16.16,3.69-9.39,0-14.81-2.16-16-3.52a32,32,0,0,1,32.19-.17ZM50.7,21.9A4.09,4.09,0,1,1,46.61,26,4.1,4.1,0,0,1,50.7,21.9Zm0,61.1a30.17,30.17,0,0,1-22-9.13,1.5,1.5,0,0,0-1.09-.47c-5.85,0-10.21-1.41-13-4.19-4.1-4.13-4-10.47-4-14.67v-1a15.36,15.36,0,0,0-5.55-12l2.18-2.18A20.85,20.85,0,0,1,19.37,55.51a1.5,1.5,0,0,0,3,0A24,24,0,0,1,32,39.22c2.54,3.3,10.77,4.83,18.5,4.83,7.89,0,16.28-1.59,18.65-5,6.17,4.58,10.1,11.41,10.1,19a22,22,0,0,1-.79,5.8c-.06.18-.11.37-.16.56C75,75.1,63.91,83,50.7,83Z"/></svg>