<?xml version="1.0" encoding="utf-8"?>
<!-- Generator: Adobe Illustrator 22.1.0, SVG Export Plug-In . SVG Version: 6.00 Build 0)  -->
<svg version="1.1" id="Слой_2" xmlns="http://www.w3.org/2000/svg" xmlns:xlink="http://www.w3.org/1999/xlink" x="0px" y="0px"
	 viewBox="0 0 101 101" style="enable-background:new 0 0 101 101;" xml:space="preserve">
<title>Artboard 2 copy 10 копия 4</title>
<path d="M19,34.7l23-7.9v16c-3.4-2.8-8.5-2.2-11.2,1.2s-2.2,8.5,1.2,11.2c3.4,2.8,8.5,2.2,11.2-1.2c1.1-1.4,1.8-3.2,1.8-5
	c0-0.1,0-0.2,0-0.3c0-0.1,0-0.1,0-0.2V15.6c0-0.8-0.7-1.5-1.5-1.5c-0.2,0-0.3,0-0.5,0.1l-26,9c-0.6,0.2-1,0.8-1,1.4v26.1
	C12.6,48,7.5,48.6,4.8,52C2,55.5,2.6,60.5,6,63.2c3.4,2.8,8.5,2.2,11.2-1.2c1.1-1.4,1.8-3.2,1.8-5c0-0.1,0-0.2,0-0.3
	c0-0.1,0-0.1,0-0.2V34.7z M37,54c-2.8,0-5-2.2-5-5s2.2-5,5-5s5,2.2,5,5S39.8,54,37,54z M42,17.7v5.9l-23,7.9v-5.9L42,17.7z M11,62
	c-2.8,0-5-2.2-5-5s2.2-5,5-5s5,2.2,5,5S13.8,62,11,62z"/>
<path d="M81.3,61.4c-4.5-2.2-5.3-5.8-5.4-6c-0.1-0.8-0.8-1.4-1.6-1.4c-0.8,0.1-1.4,0.8-1.4,1.6v25.1c-3.5-2.7-8.5-2.1-11.2,1.3
	c-2.7,3.5-2.1,8.5,1.3,11.2c3.5,2.7,8.5,2.1,11.2-1.3c0.9-1.2,1.5-2.6,1.7-4.1c0-0.1,0-0.2,0-0.4V61.2c1.2,1.2,2.5,2.2,4,2.9
	c3.8,1.9,4.4,3.7,4.4,6.6c0,0.8,0.7,1.5,1.5,1.5s1.5-0.7,1.5-1.5C87.4,66.2,85.7,63.6,81.3,61.4z M68,92c-2.8,0-5-2.2-5-5s2.2-5,5-5
	s5,2.2,5,5S70.8,92,68,92z"/>
<path d="M89,20.5c0-0.8-0.7-1.5-1.5-1.5l0,0c-0.8,0-1.5,0.7-1.5,1.5c0,0.2-0.3,18.6-31.2,34.7C27.5,69.4,28.2,92.6,28.3,93.6
	c0,0.8,0.7,1.4,1.5,1.4h0.1c0.8,0,1.5-0.7,1.4-1.6c0-0.2-0.7-22.2,25-35.6C88.6,40.9,89,21.3,89,20.5z"/>
<path d="M57.5,40c0.3,0,0.5-0.1,0.7-0.2c16.3-9.2,19.6-24.4,19.7-25c0.2-0.8-0.4-1.6-1.2-1.8c-0.8-0.2-1.6,0.4-1.8,1.2l0,0
	c-2.8,9.8-9.4,18.1-18.3,23c-0.7,0.4-1,1.3-0.6,2C56.4,39.7,56.9,40,57.5,40z"/>
</svg>
