<svg id="Слой_2" data-name="Слой 2" xmlns="http://www.w3.org/2000/svg" viewBox="0 0 101 101"><title>Artboard 2 copy 10 копия 7</title><path d="M84.44,16.56a48,48,0,1,0,0,67.88A48.06,48.06,0,0,0,84.44,16.56ZM18.68,82.32A45,45,0,1,1,93.71,63L51,49.23a1.5,1.5,0,0,0-1.89,1.89L62.84,93.76A45,45,0,0,1,18.68,82.32Zm63.64,0A44.73,44.73,0,0,1,65.7,92.85L52.83,53,92.78,65.87A44.72,44.72,0,0,1,82.32,82.32Z"/><path d="M38.92,73.83a6.5,6.5,0,1,0-6.5-6.5A6.51,6.51,0,0,0,38.92,73.83Zm0-10a3.5,3.5,0,1,1-3.5,3.5A3.5,3.5,0,0,1,38.92,63.83Z"/><path d="M45.92,23a6.5,6.5,0,1,0,6.5,6.5A6.51,6.51,0,0,0,45.92,23Zm0,10a3.5,3.5,0,1,1,3.5-3.5A3.5,3.5,0,0,1,45.92,33Z"/><path d="M83.62,67.08a1.5,1.5,0,0,0-2,.59A35.63,35.63,0,0,1,68.37,81.18a1.5,1.5,0,0,0,1.51,2.59A38.65,38.65,0,0,0,84.2,69.12,1.5,1.5,0,0,0,83.62,67.08Z"/><path d="M55.89,87.14a1.5,1.5,0,0,0-1.65-1.34A36.05,36.05,0,0,1,50.5,86,35.5,35.5,0,1,1,86,50.5a36.1,36.1,0,0,1-.32,4.78,1.5,1.5,0,1,0,3,.4A39.13,39.13,0,0,0,89,50.5,38.5,38.5,0,1,0,50.5,89a39.11,39.11,0,0,0,4.05-.21A1.5,1.5,0,0,0,55.89,87.14Z"/><path d="M33.6,43.15a1.5,1.5,0,0,0-2.12,0L22.59,52a1.5,1.5,0,1,0,2.12,2.12l8.89-8.89A1.5,1.5,0,0,0,33.6,43.15Z"/><path d="M68.62,33a6.5,6.5,0,1,0,6.5,6.5A6.51,6.51,0,0,0,68.62,33Zm0,10a3.5,3.5,0,1,1,3.5-3.5A3.5,3.5,0,0,1,68.62,43Z"/></svg>