<svg id="Слой_2" data-name="Слой 2" xmlns="http://www.w3.org/2000/svg" viewBox="0 0 101 101"><title>Artboard 2 copy 2</title><path d="M92.51,57c0-9.09-21.77-14-42.25-14S8,47.91,8,57c0,.1,0,.19,0,.29a1.49,1.49,0,0,0,0,.21c0,18.89,13.81,32.73,15.14,34C24,92.58,30.09,99,50.26,99h.25c20.21,0,26.27-6.45,27.12-7.5,1.28-1.26,14.88-15.1,14.88-34a1.48,1.48,0,0,0,0-.21C92.49,57.19,92.51,57.1,92.51,57ZM50.26,46c23.13,0,39.25,5.8,39.25,11S73.39,68,50.26,68,11,62.2,11,57,27.13,46,50.26,46ZM75.46,89.42l-.17.19c0,.06-5.08,6.39-24.79,6.39h-.25c-19.71,0-24.74-6.33-24.78-6.37a1.51,1.51,0,0,0-.19-.22c-.13-.12-11.6-11.22-13.89-26.65C18.3,68.15,34.65,71,50.26,71s32-2.85,38.86-8.24C86.87,78.2,75.59,89.3,75.46,89.42Z"/><path d="M24.28,62.1a1.51,1.51,0,0,0,.47-.08C31.5,59.78,41,58.5,50.95,58.5c9.33,0,18.15,1.1,24.86,3.1a1.5,1.5,0,0,0,.86-2.87c-7-2.08-16.11-3.23-25.71-3.23-10.36,0-20,1.31-27.14,3.67a1.5,1.5,0,0,0,.47,2.92Z"/><path d="M40.31,39.11a1.5,1.5,0,0,0,1.13-2.48c-7.78-9,.83-16.69,1.2-17a1.5,1.5,0,0,0-2-2.27,18.3,18.3,0,0,0-4.41,6.27c-1.48,3.58-2.18,9.09,2.91,15A1.5,1.5,0,0,0,40.31,39.11Z"/><path d="M50.6,20c-2.41,2.15-5.42,4.82-4.81,10,.79,6.68,6.59,8.48,9.55,8.5h0a1.5,1.5,0,0,0,0-3c-.24,0-5.92-.1-6.6-5.85-.42-3.58,1.55-5.33,3.83-7.36C54.66,20.38,57,18.29,57,14.75c0-5.48-5.53-7.81-8.45-8.28a1.5,1.5,0,1,0-.47,3c.06,0,5.93,1,5.93,5.32C54,16.84,52.71,18.1,50.6,20Z"/><path d="M55.15,5a11.32,11.32,0,0,1,7.75,8.26c1.3,5.41-2.91,9.35-3.09,9.52a1.5,1.5,0,0,0,2,2.22c.24-.21,5.72-5.28,4-12.45A14.23,14.23,0,0,0,55.85,2,1.5,1.5,0,0,0,55.15,5Z"/></svg>