<?xml version="1.0" encoding="utf-8"?>
<!-- Generator: Adobe Illustrator 22.1.0, SVG Export Plug-In . SVG Version: 6.00 Build 0)  -->
<svg version="1.1" id="Слой_2" xmlns="http://www.w3.org/2000/svg" xmlns:xlink="http://www.w3.org/1999/xlink" x="0px" y="0px"
	 viewBox="0 0 101 101" style="enable-background:new 0 0 101 101;" xml:space="preserve">
<title>Artboard 2 copy 10 копия 14</title>
<path d="M86.4,23H15.6C12,23,9,26,9,29.6v41.7C9,75,12,78,15.6,78h70.7c3.7,0,6.6-3,6.6-6.6V29.6C93,26,90,23,86.4,23z M15.6,26
	h70.7c2,0,3.6,1.6,3.6,3.6V33H12v-3.4C12,27.6,13.6,26,15.6,26z M90,42H12v-6h78V42z M86.4,75H15.6c-2,0-3.6-1.6-3.6-3.6V45h78v26.4
	C90,73.4,88.4,75,86.4,75z"/>
<path d="M69.5,64h-38c-0.8,0-1.5,0.7-1.5,1.5s0.7,1.5,1.5,1.5h38c0.8,0,1.5-0.7,1.5-1.5S70.3,64,69.5,64z"/>
<circle cx="21.5" cy="65.5" r="2.5"/>
</svg>
