<svg id="Слой_2" data-name="Слой 2" xmlns="http://www.w3.org/2000/svg" viewBox="0 0 101 101"><title>Artboard 2 copy 11</title><path d="M46.5,39A1.5,1.5,0,0,0,45,40.5v19a1.5,1.5,0,0,0,3,0v-19A1.5,1.5,0,0,0,46.5,39Z"/><path d="M56,59.5v-19a1.5,1.5,0,0,0-3,0v19a1.5,1.5,0,0,0,3,0Z"/><path d="M92,37.78a1,1,0,0,0,0-.56,1.44,1.44,0,0,0-.07-.28,1.47,1.47,0,0,0-.15-.26,1.41,1.41,0,0,0-.11-.19l-.09-.09,0,0C90.87,35.81,76,22.67,59.17,19.62A79.66,79.66,0,0,0,60.56,9.52s0,0,0-.06,0-.07,0-.11a1.52,1.52,0,0,0,0-.27v0a1.46,1.46,0,0,0-.16-.38l0-.06a1.47,1.47,0,0,0-.26-.31h0a1.5,1.5,0,0,0-.31-.2l-.06,0h0a1.54,1.54,0,0,0-.36-.1H59a85.33,85.33,0,0,0-14.69,2.43c-7.52,1.9-18,5.67-25.18,12.86-12.33,12.33-5,29-4.56,29.94h0l0,0,0,.07a1.48,1.48,0,0,0,.16.24l.1.11.19.16.13.08.08,0a31.44,31.44,0,0,0,12.47,2.64A25.21,25.21,0,0,0,37,54.85v8.3a15.51,15.51,0,0,0,2.82,9.17L41.77,75A12.67,12.67,0,0,1,44,82.35V96.5a1.5,1.5,0,0,0,3,0V82.35a15.51,15.51,0,0,0-2.82-9.17l-1.95-2.64A12.67,12.67,0,0,1,40,63.15V40.5a1.5,1.5,0,0,0-3,0V51.58c-7.24,3.34-14.83,1.59-18.38.41L57.14,13.49a82.36,82.36,0,0,1-5,19.62,1.5,1.5,0,0,0,2.78,1.13,77.46,77.46,0,0,0,3.66-11.67c13.28,2.37,25.67,11.7,29.64,14.94C84.75,40.3,75.1,47.6,64,51.09V40.5a1.5,1.5,0,0,0-3,0V63.15a12.68,12.68,0,0,1-2.23,7.39l-1.95,2.64A15.52,15.52,0,0,0,54,82.35V96.5a1.5,1.5,0,0,0,3,0V82.35A12.68,12.68,0,0,1,59.23,75l1.95-2.64A15.52,15.52,0,0,0,64,63.15V54.22c14.82-4.35,27-15.14,27.51-15.6l0,0,.09-.08a1.42,1.42,0,0,0,.11-.19,1.47,1.47,0,0,0,.15-.26A1.44,1.44,0,0,0,92,37.78ZM55,11.37l-25,25V19C39,14.1,49.37,12.13,55,11.37ZM16.49,49.89c-1.56-4.53-4.08-15.72,4.75-24.55A35.14,35.14,0,0,1,27,20.74V39.38Z"/></svg>