<svg id="Слой_2" data-name="Слой 2" xmlns="http://www.w3.org/2000/svg" viewBox="0 0 101 101"><title>Artboard 2 copy 9</title><path d="M70.5,9h-40A4.5,4.5,0,0,0,26,13.5v76A4.5,4.5,0,0,0,30.5,94h40A4.5,4.5,0,0,0,75,89.5v-76A4.5,4.5,0,0,0,70.5,9ZM29,22H72V76H29Zm1.5-10h40A1.5,1.5,0,0,1,72,13.5V19H29V13.5A1.5,1.5,0,0,1,30.5,12Zm40,79h-40A1.5,1.5,0,0,1,29,89.5V79H72V89.5A1.5,1.5,0,0,1,70.5,91Z"/><circle cx="50.5" cy="85" r="2.5"/><path d="M67.5,55H65A14.51,14.51,0,0,0,51.9,41.07a2.5,2.5,0,1,0-2.8,0A14.51,14.51,0,0,0,36,55H33.5a1.5,1.5,0,0,0,0,3h34a1.5,1.5,0,0,0,0-3Zm-17-11A11.5,11.5,0,0,1,62,55H39A11.5,11.5,0,0,1,50.5,44Z"/></svg>