<svg id="Слой_2" data-name="Слой 2" xmlns="http://www.w3.org/2000/svg" viewBox="0 0 101 101"><title>Artboard 2 copy 7</title><path d="M88,81.93A1.5,1.5,0,0,0,86.64,81H70.91a1.48,1.48,0,0,0,.09-.5V44.22a1.5,1.5,0,0,0-1.18-1.47L52,38.9V30.34a10,10,0,0,0,8.41-9.82c0-5-8-17.44-8.92-18.84a1.56,1.56,0,0,0-2.51,0c-.91,1.4-8.92,13.85-8.92,18.84A10.06,10.06,0,0,0,49,30.42v7.83L31.82,34.53A1.5,1.5,0,0,0,30,36V80.5a1.48,1.48,0,0,0,.09.5H14.36a1.5,1.5,0,0,0-1.06,2.56l6.83,6.83A12.25,12.25,0,0,0,28.84,94H72.16a12.25,12.25,0,0,0,8.72-3.61l6.83-6.83A1.5,1.5,0,0,0,88,81.93Zm-45-61.41c0-2.71,4-10.07,7.18-15.22,3.18,5.15,7.18,12.51,7.18,15.22A7,7,0,0,1,52,27.28V19.5a1.5,1.5,0,0,0-3,0v7.89A7,7,0,0,1,43.05,20.52ZM33,80.5V37.86l7,1.52s0,.08,0,.13v13a1.5,1.5,0,0,0,3,0V40l25,5.41V80.5a1.48,1.48,0,0,0,.09.5H32.91A1.48,1.48,0,0,0,33,80.5Zm45.75,7.77A9.26,9.26,0,0,1,72.16,91H28.84a9.26,9.26,0,0,1-6.59-2.73L18,84H83Z"/><path d="M41.5,60A1.5,1.5,0,0,0,40,61.5v10a1.5,1.5,0,0,0,3,0v-10A1.5,1.5,0,0,0,41.5,60Z"/></svg>