<?xml version="1.0" encoding="utf-8"?>
<!-- Generator: Adobe Illustrator 22.1.0, SVG Export Plug-In . SVG Version: 6.00 Build 0)  -->
<svg version="1.1" id="Слой_2" xmlns="http://www.w3.org/2000/svg" xmlns:xlink="http://www.w3.org/1999/xlink" x="0px" y="0px"
	 viewBox="0 0 101 101" style="enable-background:new 0 0 101 101;" xml:space="preserve">
<title>Artboard 2 copy 10 копия</title>
<path d="M80.6,25c-3.7-0.1-7.4,0.8-10.6,2.7c-1.5,0.9-3.2,1.5-5,1.8v-0.1c0-9.3-7.5-16.8-16.8-16.8c-0.8,0-1.5,0.7-1.5,1.5
	s0.7,1.5,1.5,1.5c7.6,0,13.8,6.2,13.8,13.8v0.1c-2.2-0.3-4.3-0.9-6.2-1.9c-3.3-1.6-6.8-2.5-10.5-2.5c-10.8,0-16.7,9.6-16.7,27
	c0,0.5,0,1.1,0,1.6C14.6,51.2,6,46.6,6,42.4c0-3.9,8.4-9.3,22.5-11.6c0.8-0.1,1.4-0.9,1.3-1.7c-0.1-0.8-0.9-1.4-1.7-1.3l0,0
	C13.3,30.3,3,36.2,3,42.4v19.1c0,4.7,5.1,8.8,14.8,11.8c7,2.1,14.2,3.3,21.5,3.9c0,0,0.1,0.1,0.1,0.1c14,13.3,36.1,12.8,49.5-1.1
	C95,69.6,98.5,61,98.5,52C98.5,34.6,92.2,25,80.6,25z M6,61.5V48.3c1.8,1.5,3.8,2.8,6,3.7v7.5c0,0.8,0.7,1.5,1.5,1.5
	s1.5-0.7,1.5-1.5v-6.3c0.9,0.3,1.8,0.7,2.8,1c2.2,0.7,4.6,1.3,7.2,1.8v7.5c0,0.8,0.7,1.5,1.5,1.5s1.5-0.7,1.5-1.5v-6.9
	c3.2,0.6,6.5,1,10,1.3v7.6c0,0.8,0.7,1.5,1.5,1.5s1.5-0.7,1.5-1.5v-7.3c3.4,0.2,6.9,0.4,10.4,0.4H52v7c0,0.8,0.7,1.5,1.5,1.5
	s1.5-0.7,1.5-1.5v-7c3.8-0.1,7.4-0.3,11-0.7v16.1c-4.8,0.5-9.7,0.7-14.6,0.7C24.7,74.7,6,67.8,6,61.5z M63.5,84
	c-7,0-13.8-2.3-19.3-6.5c2.4,0.1,4.8,0.2,7.2,0.2c5.4,0,10.8-0.3,16.2-0.9c0.7-0.1,1.3-0.7,1.3-1.5V56.2c0-0.8-0.7-1.5-1.5-1.5
	c-0.1,0-0.1,0-0.2,0c-5.3,0.6-10.6,0.9-15.9,0.9c-6.6,0-13.3-0.4-19.8-1.4c0-0.7-0.1-1.4-0.1-2.1c0-9,1.8-24,13.7-24
	c3.2,0,6.4,0.8,9.3,2.3c2.3,1.2,4.9,1.9,7.5,2.2v8.4c-5.9-0.3-7.5-3-7.6-3.1c-0.4-0.7-1.3-1-2-0.6c-0.7,0.4-0.9,1.2-0.6,1.9
	c0.1,0.2,2.5,4.8,11.3,4.8c8.6,0,12-4.4,12.1-4.6c0.5-0.7,0.3-1.6-0.4-2.1c-0.6-0.5-1.5-0.3-2,0.3c-0.1,0.1-2.2,2.8-7.8,3.3v-8.3
	c2.3-0.2,4.5-1,6.5-2.1c2.8-1.6,6-2.4,9.2-2.3c12.3,0,14.9,13,14.9,24C95.5,69.7,81.2,84,63.5,84z"/>
<path d="M88.9,45.1c-0.2-0.8-1.1-1.3-1.9-1c-0.8,0.2-1.3,1.1-1,1.9c0,0,0,0,0,0c1.4,6.4,0.2,13.2-3.4,18.7c-0.5,0.7-0.3,1.6,0.4,2.1
	s1.6,0.3,2.1-0.4C89.3,60,90.6,52.3,88.9,45.1z"/>
</svg>
