<svg id="Слой_2" data-name="Слой 2" xmlns="http://www.w3.org/2000/svg" viewBox="0 0 101 101"><title>Artboard 2 copy 10 копия 5</title><path d="M89.78,40.48a12.37,12.37,0,0,0-5.42,1.32A31.82,31.82,0,0,0,85,35.5,1.5,1.5,0,0,0,83.5,34h-60A1.5,1.5,0,0,0,22,35.5a31.2,31.2,0,0,0,7.65,20.58A19.62,19.62,0,0,0,15.14,67.58a14.25,14.25,0,0,0-7,9.7,1.5,1.5,0,0,0,.42,1.27l7.63,7.63a1.5,1.5,0,0,0,1.78.26l9.89-5.36h0L37.84,79H51l9.86,2.06,9.93,5.39a1.5,1.5,0,0,0,1.78-.26l7.63-7.63a1.5,1.5,0,0,0,.42-1.27,14.25,14.25,0,0,0-6.9-9.64,20.55,20.55,0,0,0-3.52-5.46,31.59,31.59,0,0,0,2.61-1.8L73.3,60l0,0c3-2.25,6.3-1.56,10.1-.75a30.45,30.45,0,0,0,6.33.88,9.8,9.8,0,0,0,0-19.6ZM82,37a28.44,28.44,0,0,1-2.06,9.27l0,0v0A28.08,28.08,0,0,1,67.95,60a20.87,20.87,0,0,0-10.82-4.3,15.85,15.85,0,0,0-12.77-6.88A15.13,15.13,0,0,0,32.45,54.7,28.2,28.2,0,0,1,25,37ZM50,76H38.87L34.22,57.39a12.12,12.12,0,0,1,10.14-5.53,13,13,0,0,1,10.28,5.55ZM31.47,58.79l4.39,17.55L28.07,78,18.2,68.11C20.11,64.23,23.92,59.88,31.47,58.79Zm-14,24.48L11.26,77a11.32,11.32,0,0,1,5-6.62L25,79.2Zm60-6.26-6.26,6.26-7.48-4.05,8.8-8.8A11.26,11.26,0,0,1,77.51,77ZM60.78,78,53,76.35,57.39,58.8c7.55,1.09,11.36,5.43,13.26,9.31Zm29-20.89a28.23,28.23,0,0,1-5.71-.81,28.06,28.06,0,0,0-6.17-.84,31.18,31.18,0,0,0,4.77-8c1-2.22,4.08-4,7.12-4a6.8,6.8,0,0,1,0,13.6Z"/><path d="M50.8,12.65c-2.16,1.76-4.84,4-4.84,8.64C46,27.58,52,30.38,55.22,31l.28,0a1.5,1.5,0,0,0,.28-3C55.5,28,49,26.66,49,21.29,49,18,50.69,16.61,52.69,15c1.79-1.46,3.82-3.12,3.82-6.14a6.25,6.25,0,0,0-1.82-4.68,8,8,0,0,0-5.44-2,1.5,1.5,0,0,0,.05,3h0a5.18,5.18,0,0,1,3.28,1.15,3.34,3.34,0,0,1,.9,2.52C53.51,10.36,52.53,11.24,50.8,12.65Z"/></svg>