<svg id="Слой_2" data-name="Слой 2" xmlns="http://www.w3.org/2000/svg" viewBox="0 0 101 101"><title>Artboard 2 copy 10 копия 10</title><path d="M39.5,26h9a1.5,1.5,0,0,0,0-3h-9a1.5,1.5,0,0,0,0,3Z"/><path d="M89.05,57.69a8.67,8.67,0,0,0-3.46-6.92,12.51,12.51,0,0,0,2.94-7.83c0-10.28-12.93-29.45-37.66-29.45-25.08,0-37.66,18.88-37.66,29.45a12.11,12.11,0,0,0,2.23,6.86,10.16,10.16,0,0,0-4,8.86A10.05,10.05,0,0,0,14,64.55a11.28,11.28,0,0,0-.78,4.1c0,11.13,16.54,19.85,37.66,19.85s37.66-8.72,37.66-19.85A11.65,11.65,0,0,0,87,63.06,8.26,8.26,0,0,0,89.05,57.69Zm-6.78,5.38c-8.65,4.53-17.55,6.78-29.38,7.36.17-.39.33-.79.49-1.18,1.31-3.24,2.55-6.31,6.65-7v0c10.11-1.28,18.49-4.66,23.5-9.25a5.68,5.68,0,0,1,2.53,4.72C86.05,60.76,83.41,62.48,82.28,63.07ZM50.88,16.5C73.3,16.5,85.54,34,85.54,42.95c0,9.13-15.87,16.85-34.66,16.85S16.21,52.08,16.21,42.95C16.21,33.46,27.8,16.5,50.88,16.5ZM17.35,52.12c6.19,6.39,18.73,10.67,33.52,10.67.87,0,1.73,0,2.58,0a20.4,20.4,0,0,0-2.86,5.38c-.34.85-.67,1.64-1,2.36-1.63,3.25-2.68,5.12-5.38,5.63-1.72.33-4,.29-6.48-3a11.82,11.82,0,0,1-.93-1.82c-1.44-3.19-4.11-9.14-12.1-7-.32.08-.63.18-1,.28a7.47,7.47,0,0,1-1.61.39,7.11,7.11,0,0,1-4.78-12.82ZM50.88,85.5c-18.79,0-34.66-7.71-34.66-16.85a8.11,8.11,0,0,1,.28-2,10.06,10.06,0,0,0,5.88,1.33,10,10,0,0,0,2.28-.52l.8-.24c5.11-1.34,6.86,1.51,8.6,5.38a13,13,0,0,0,1.26,2.39c2.17,2.89,4.66,4.31,7.57,4.31a10,10,0,0,0,1.87-.18c3.54-.67,5.27-3,6.65-5.57,13.11-.48,22.81-2.81,32.26-7.77.37-.19.72-.41,1.05-.63a8.48,8.48,0,0,1,.82,3.55C85.54,77.79,69.67,85.5,50.88,85.5Z"/><path d="M56.08,34.86a1.5,1.5,0,0,0,1.06-.44L64,27.51a1.5,1.5,0,0,0-2.12-2.12L55,32.29a1.5,1.5,0,0,0,1.06,2.56Z"/><path d="M42.74,33.61a1.5,1.5,0,0,0-2.12,2.12l6.91,6.91a1.5,1.5,0,0,0,2.12-2.12Z"/></svg>