<?xml version="1.0" encoding="utf-8"?>
<!-- Generator: Adobe Illustrator 22.1.0, SVG Export Plug-In . SVG Version: 6.00 Build 0)  -->
<svg version="1.1" id="Слой_2" xmlns="http://www.w3.org/2000/svg" xmlns:xlink="http://www.w3.org/1999/xlink" x="0px" y="0px"
	 viewBox="0 0 101 101" style="enable-background:new 0 0 101 101;" xml:space="preserve">
<title>Artboard 2 copy 10 копия 13</title>
<path d="M50.9,19.7C36.6,19.6,25,31.2,25,45.5c0,4.8,1.3,9.5,3.8,13.6c0,0.1,0.1,0.1,0.1,0.2l20.3,33.9c0.3,0.4,0.7,0.7,1.3,0.7l0,0
	c0.5,0,1-0.3,1.3-0.7l21.1-33.9c0-0.1,0.1-0.2,0.1-0.2c7.5-12.2,3.7-28.1-8.5-35.6C60.4,21,55.7,19.7,50.9,19.7z M70.3,57.7
	c0,0.1-0.1,0.2-0.1,0.2L50.5,89.5L31.6,58c0-0.1-0.1-0.2-0.1-0.3C24.8,47,28,32.9,38.7,26.2s24.8-3.5,31.6,7.2
	C74.9,40.8,74.9,50.3,70.3,57.7L70.3,57.7z"/>
<path d="M50.9,36.1c-5.2,0-9.5,4.2-9.5,9.5s4.2,9.5,9.5,9.5s9.5-4.2,9.5-9.5C60.3,40.3,56.1,36.1,50.9,36.1z M50.9,52
	c-3.6,0-6.5-2.9-6.4-6.5c0-3.6,2.9-6.5,6.5-6.4c3.6,0,6.4,2.9,6.4,6.4C57.3,49.1,54.4,52,50.9,52L50.9,52z"/>
<path d="M84.9,31.4c-3.2-7.5-8.8-13.7-15.9-17.7c-0.7-0.4-1.6-0.1-2,0.6c-0.4,0.7-0.1,1.6,0.6,2C74,20,79.2,25.7,82.1,32.5
	c0.2,0.6,0.8,0.9,1.4,0.9c0.2,0,0.4,0,0.6-0.1C84.9,33,85.2,32.1,84.9,31.4C84.9,31.4,84.9,31.4,84.9,31.4z"/>
<path d="M50.9,12c0.8,0,1.5-0.7,1.5-1.5S51.7,9,50.9,9c-20.4,0-37,16.6-37,37c0,0.8,0.7,1.5,1.5,1.5c0.8,0,1.5-0.7,1.5-1.5
	C16.9,27.2,32.1,12,50.9,12z"/>
</svg>
