<?xml version="1.0" encoding="utf-8"?>
<!-- Generator: Adobe Illustrator 22.1.0, SVG Export Plug-In . SVG Version: 6.00 Build 0)  -->
<svg version="1.1" id="Слой_2" xmlns="http://www.w3.org/2000/svg" xmlns:xlink="http://www.w3.org/1999/xlink" x="0px" y="0px"
	 viewBox="0 0 101 101" style="enable-background:new 0 0 101 101;" xml:space="preserve">
<title>Artboard 2 copy 10 копия 15</title>
<path d="M51.2,69.6c-4.1,0-7.4,3.3-7.4,7.4c0,4.1,3.3,7.4,7.4,7.4c4.1,0,7.4-3.3,7.4-7.4C58.5,72.9,55.2,69.6,51.2,69.6z M51.2,81.4
	c-2.4,0-4.4-2-4.4-4.4c0-2.4,2-4.4,4.4-4.4c2.4,0,4.4,2,4.4,4.4C55.5,79.4,53.6,81.4,51.2,81.4C51.2,81.4,51.2,81.4,51.2,81.4z"/>
<path d="M51.2,51.7c-7.7,0-14.9,3.7-19.5,9.8c-0.5,0.7-0.3,1.6,0.4,2.1c0.6,0.4,1.5,0.3,2-0.3c6.9-9.4,20.2-11.4,29.6-4.5
	c1.5,1.1,2.9,2.4,4,3.9c0.5,0.6,1.5,0.8,2.1,0.2c0.6-0.5,0.8-1.5,0.2-2.1C65.5,55,58.5,51.7,51.2,51.7z"/>
<path d="M51.2,36.3c-11.8,0-23,5.3-30.5,14.4c-0.5,0.7-0.4,1.6,0.3,2.1c0.6,0.5,1.5,0.4,2-0.2C35.8,37,58.9,34.8,74.4,47.7
	c1.6,1.3,3,2.7,4.3,4.2c0.6,0.6,1.5,0.7,2.1,0.1c0.6-0.6,0.7-1.5,0.1-2.1C73.5,41.3,62.6,36.3,51.2,36.3z"/>
<path d="M90.8,40.3c-19.6-21.9-53.3-23.7-75.1-4.1C14,37.7,12.5,39.3,11,41c-0.6,0.6-0.5,1.6,0.1,2.1c0.6,0.6,1.6,0.5,2.1-0.1
	c18.2-20.9,49.9-23.2,70.8-5c1.6,1.4,3.1,2.8,4.5,4.4c0.6,0.6,1.5,0.6,2.1,0C91.2,41.9,91.3,41,90.8,40.3L90.8,40.3z"/>
</svg>
