<svg id="Слой_2" data-name="Слой 2" xmlns="http://www.w3.org/2000/svg" viewBox="0 0 101 101"><title>Artboard 2 copy 10 копия 2</title><path d="M99,42.84A1.5,1.5,0,0,0,96,42.16c-2,8.69-6,12.84-7.73,14.31-6-5.5-10-3.89-14.65-.44,5.87-16.27-6.29-28.49-6.43-28.62a1.5,1.5,0,0,0-2.55,1.07,9.75,9.75,0,0,1-9.74,9.74,10,10,0,0,1-7.12-3,9.14,9.14,0,0,1-2.63-6.69A25.66,25.66,0,0,1,57.6,7.32a1.5,1.5,0,0,0-.92-2.81A55.1,55.1,0,0,0,31.27,15.46a39.22,39.22,0,0,0-15,31.6c0,14.8,9.44,23,15.1,26.64-3,.43-5.64.75-8,1-7.88.93-11.84,1.4-11.71,4.4a4.73,4.73,0,0,0,1.78,3.35c4.72,4.16,19.48,5.89,31.67,5.89,3,0,5.94-.11,8.47-.31,9.07-.73,34.8-7.77,39-19.25.89-2.42,1.13-6.06-2.26-10.15C92.63,56.74,96.83,52.09,99,42.84ZM19.29,47.06C19.29,35.29,26.13,15,50.93,8.7a28.23,28.23,0,0,0-8.74,19.74,12.11,12.11,0,0,0,3.47,8.87,13,13,0,0,0,9.27,3.92A12.77,12.77,0,0,0,67.18,32c3.39,4.63,9,15.31,1.14,28.22a52.27,52.27,0,0,1-14.39,8,106.93,106.93,0,0,1-17.79,4.65C33.11,71.49,19.29,64.07,19.29,47.06Zm70.56,20.7c-3.32,9-25.8,16.44-36.45,17.3-13.74,1.11-33.29-.76-37.91-4.84a2.33,2.33,0,0,1-.72-1c1.11-.62,5.29-1.12,9-1.56C31.44,76.79,43,75.43,55,71.09a56,56,0,0,0,15.37-8.63h0c.93-.71,1.79-1.4,2.59-2,6.11-4.89,8.4-6.72,14.2-.92h0C90,62.33,90.84,65,89.84,67.76Z"/><path d="M50.22,49.5C43.6,48.84,39.15,45.37,37,39.19a26.18,26.18,0,0,1-1.3-9.56,1.5,1.5,0,0,0-2.56-1.19c-.25.25-6,6.19-6,19.73,0,9.55,5.32,14.68,10.52,18.43a1.5,1.5,0,1,0,1.76-2.43c-4.82-3.48-9.27-7.82-9.27-16a32,32,0,0,1,2.78-13.84c.76,6.4,4,16.86,17,18.15a1.5,1.5,0,1,0,.29-3Z"/></svg>