<svg id="Слой_2" data-name="Слой 2" xmlns="http://www.w3.org/2000/svg" viewBox="0 0 101 101"><title>Artboard 2</title><path d="M72,62.24V34l.49-.18.66-.24.55-.25.55-.27.57-.32.46-.28.59-.41.35-.27c.21-.16.42-.33.62-.5l.23-.21c.23-.21.45-.42.66-.64l0,0a13.53,13.53,0,0,0,2.47-3.62l.06-.12c.13-.28.24-.56.35-.85l.11-.31c.09-.25.17-.51.24-.77s.08-.31.12-.47.11-.45.15-.68.07-.45.1-.68.05-.36.07-.54c0-.42.06-.84.06-1.27A13.49,13.49,0,0,0,66.45,7.69L66,7.77c-.36.06-.72.11-1.07.19-.18,0-.35.11-.53.16-.33.09-.66.18-1,.3s-.34.15-.51.22-.59.24-.88.38A13.44,13.44,0,0,0,50.28,2.19h-.13A13.46,13.46,0,0,0,38.44,9l-.19-.08c-.4-.19-.8-.36-1.21-.51l-.28-.08c-.39-.13-.78-.25-1.19-.35-.18,0-.36-.06-.55-.1s-.64-.13-1-.17a13.49,13.49,0,0,0-15,13.4c0,.44,0,.87.07,1.29,0,.12,0,.23,0,.35,0,.32.08.63.14.94,0,.11,0,.22.07.33q.11.49.25,1l.07.22A13.39,13.39,0,0,0,25,32.24l0,0q.47.32,1,.59l.15.09c.28.15.57.28.86.41a13.38,13.38,0,0,0,1.3.51h0l.7.2V62.24C29,67.32,39.82,70,50.5,70S72,67.32,72,62.24ZM50.5,67c-12,0-18.5-3.13-18.5-4.73V34.55l.52,0A13.49,13.49,0,0,0,39,32.92a1.5,1.5,0,1,0-1.44-2.63,10.38,10.38,0,0,1-7.44,1h0A10.58,10.58,0,0,1,28,30.53l-.42-.2-.2-.12c-.23-.13-.46-.26-.67-.41l-.09-.06c-.26-.18-.51-.36-.74-.56h0a10.54,10.54,0,0,1-3-4h0c-.12-.29-.23-.58-.32-.88l-.06-.18c-.07-.24-.14-.49-.19-.75l-.06-.26c0-.24-.08-.48-.11-.73,0-.09,0-.18,0-.27,0-.33-.05-.67-.05-1A10.49,10.49,0,0,1,34,10.71h0a10.45,10.45,0,0,1,4.22,1.61h0l.07,0a1.5,1.5,0,0,0,2.22-.67,10.39,10.39,0,0,1,19.29.06,1.5,1.5,0,0,0,2.24.67l.56-.35L62.8,12l.54-.29.15-.08.54-.24.18-.08.52-.18.21-.07.51-.14.25-.07.49-.09.27-.05.51-.06.27,0,.79,0A10.5,10.5,0,0,1,78.52,21.08c0,.33,0,.66-.05,1,0,.14,0,.28-.06.42s0,.35-.08.53-.07.35-.12.53-.06.25-.1.37-.12.4-.19.59l-.09.25c-.08.22-.17.44-.27.65l-.05.11a10.61,10.61,0,0,1-1.91,2.79l0,0c-.16.17-.33.33-.5.48l-.19.17-.47.38-.29.22-.45.31-.37.22-.44.25-.44.21-.42.19L71.5,31l-.39.14A10.48,10.48,0,0,1,63,30.3a1.5,1.5,0,1,0-1.44,2.63A13.5,13.5,0,0,0,68,34.57c.33,0,.65,0,1,0V62.24C69,63.85,62.47,67,50.5,67Z"/><path d="M61.85,18.7a1.5,1.5,0,0,0-1.95.84,10.49,10.49,0,0,1-19.51,0,1.5,1.5,0,0,0-2.79,1.1,13.49,13.49,0,0,0,25.09,0A1.5,1.5,0,0,0,61.85,18.7Z"/><path d="M43.54,79.85c-3.19,0-4.9,1.2-7,4.95-2.31,4.07-4.74,6.14-7.23,6.14a5.41,5.41,0,0,1-5.4-5.4,1.5,1.5,0,0,0-3,0,8.41,8.41,0,0,0,8.4,8.4c3.65,0,7-2.58,9.84-7.66C41,83,41.92,82.85,43.54,82.85a2.36,2.36,0,0,1,2.09,1,1.5,1.5,0,1,0,2.51-1.64A5.37,5.37,0,0,0,43.54,79.85Z"/><path d="M77.62,84a1.5,1.5,0,0,0-1.5,1.5,5.41,5.41,0,0,1-5.4,5.4c-2.49,0-4.92-2.07-7.23-6.14-2.12-3.74-3.83-4.95-7-4.95a5.37,5.37,0,0,0-4.59,2.4,1.5,1.5,0,0,0,2.51,1.65,2.36,2.36,0,0,1,2.09-1c1.62,0,2.55.15,4.41,3.42,2.88,5.08,6.19,7.66,9.84,7.66a8.41,8.41,0,0,0,8.4-8.4A1.5,1.5,0,0,0,77.62,84Z"/></svg>